<svg id="Layer_1" data-name="Layer 1" xmlns="http://www.w3.org/2000/svg" viewBox="0 0 35.64 18"><defs><style>.cls-1{fill:#bcbec0;}</style></defs><path id="path3" class="cls-1" d="M19.6,19.8l-.7-.5v-.2l.6-.6c.1-.1.1-.1.1-.2s-.1-.1-.1-.2l-.8-.2c0-.1,0-.1-.1-.2l.5-.7c0-.1.1-.1,0-.2s-.1-.1-.2-.1l-.8-.1c0-.1-.1-.1-.1-.2l.4-.8v-.2c0-.1-.1-.1-.2-.1H17.1l-.1-.1.2-.8c0-.1,0-.1-.1-.2s-.1-.1-.2-.1l-.8.2-.1-.1v-.8c0-.1,0-.1-.1-.2h-.2l-.8.4c-.1,0-.1-.1-.2-.1L14.3,12c0-.1-.1-.1-.1-.2H14l-.7.5c-.1,0-.1,0-.2-.1l-.4-.8c0-.1-.1-.1-.2-.1s-.1,0-.2.1l-.6.6h-.2l-.5-.7c-.2-.3-.3-.3-.4-.3s-.1,0-.2.1l-.5.7H9.7l-.6-.6c-.1-.1-.1-.1-.2-.1s-.1.1-.2.1l-.4.8c-.1,0-.1,0-.2.1l-.7-.5c-.1,0-.1-.1-.2,0s-.1.1-.1.2v1c-.1,0-.1.1-.2.1l-.8-.4H5.9c-.1,0-.1.1-.1.2v.8l-.1.1-.8-.2c-.1,0-.1,0-.2.1s-.1.1-.1.2l.2.8-.1.1H3.6c-.1,0-.1,0-.2.1v.2L3.7,16c0,.1-.1.1-.1.2l-1,.1c-.1,0-.1.1-.2.1v.2l.6.7v.2l-.8.4a.76.76,0,0,0-.1.4c0,.1,0,.1.1.2l.6.6v.2l-.7.6c-.2,0-.2,0-.2.1s0,.1.1.2l.7.5v.2l-.6.7c-.1.1-.1.1-.1.2s.1.1.1.2l1,.2v.2l-.5.7c0,.1-.1.1,0,.2s.1.1.2.1l.8.1c0,.1.1.1.1.2l-.4.8v.2c0,.1.1.1.2.1h.8l.1.1-.2.8c0,.1,0,.1.1.2s.1.1.2.1l.8-.2.1.1v.8c0,.1,0,.1.1.2h.2l.8-.4c.1,0,.1.1.2.1L7.2,28c0,.1.1.1.1.2h.2l.7-.5c.1,0,.1,0,.2.1l.4.8c0,.1.1.1.2.1s.1,0,.2-.1l.6-.6H10l.5.7c.2.3.3.3.4.3s.1,0,.2-.1l.2-.8h.2l.6.6c.1.1.1.1.2.1s.1-.1.2-.1l.4-.8c.1,0,.1,0,.2-.1l.7.5c.1,0,.1.1.2,0s.1-.1.1-.2l.1-.8c.1,0,.1-.1.2-.1l.8.4h.2c.1,0,.1-.1.1-.2v-.8l.1-.1.8.2c.1,0,.1,0,.2-.1s.1-.1.1-.2l.4-1.2.1-.1H18c.1,0,.1,0,.2-.1v-.2l-.4-.8c0-.1.1-.1.1-.2l.8-.1c.1,0,.1-.1.2-.1v-.2l-.5-.7c0-.1,0-.1.1-.2l.8-.4c.1,0,.1-.1.1-.2s0-.1-.1-.2l-.6-.6v-.2l.7-.5c.1,0,.1-.1.1-.2.2-.3.2-.3.1-.4ZM14.5,26c-.2-.1-.5-.4-.4-.6s.4-.5.6-.4.5.4.4.6S14.9,26.1,14.5,26Zm-.2-1.7a.62.62,0,0,0-.6.4l-.2,1.2a6.09,6.09,0,0,1-2.8.6,6.71,6.71,0,0,1-2.8-.6l-.2-1.2c0-.2-.4-.5-.6-.4L6,24.5c-.2-.2-.4-.5-.6-.7h5.4c.1,0,.1,0,.1-.1V21.8a.1.1,0,0,0-.1-.1H9.3V20.5H11c.1,0,.8,0,1.1,1a10.26,10.26,0,0,0,.4,1.4c.1.4.5,1,1,1h2.6c-.2.2-.4.5-.6.7l-1.2-.3ZM7,26c-.4,0-.6-.1-.7-.4s.1-.6.3-.6a.47.47,0,0,1,.6.4A.48.48,0,0,1,7,26ZM4.9,17.7a.62.62,0,0,1-.2.7.62.62,0,0,1-.7-.2.62.62,0,0,1,.2-.7A.57.57,0,0,1,4.9,17.7Zm-.7,1.6,1.2-.5c.2-.1.4-.4.2-.6l-.2-.6h1v4.2H4.5A11,11,0,0,1,4.3,20,1.7,1.7,0,0,1,4.2,19.3Zm5.1-.5V17.6h2.2c.1,0,.8.1.8.6s-.5.6-1,.6Zm8,1.2v.5h-.7c-.1,0-.1,0-.1.1V21c0,.7-.4.8-.7,1-.4,0-.7-.1-.7-.4A2.37,2.37,0,0,0,14,19.8a2.59,2.59,0,0,0,1.3-1.9,2.1,2.1,0,0,0-1.1-1.7,2.89,2.89,0,0,0-1.4-.5H5.9a5.92,5.92,0,0,1,3.7-2l.8.8a.48.48,0,0,0,.7,0l1-.8a6.4,6.4,0,0,1,4.4,3.2l-.6,1.4a.48.48,0,0,0,.2.6l1.2.5V20Zm-7-7.2c.2-.2.6-.2.7,0s.2.6,0,.7-.6.2-.7,0A.85.85,0,0,1,10.3,12.8Zm6.3,5c.1-.2.5-.4.7-.2s.4.5.2.7-.5.4-.7.2A.62.62,0,0,1,16.6,17.8Z" transform="translate(-1.9 -11)"/><path class="cls-1" d="M22.89,24.07a4,4,0,0,1-4-4.12,4.06,4.06,0,0,1,8.11,0A4,4,0,0,1,22.89,24.07Zm0-6.49c-1.14,0-1.31,1.24-1.31,2.39,0,1.41.28,2.42,1.27,2.42s1.33-1.32,1.33-2.39C24.21,18.71,24,17.58,22.92,17.58Z" transform="translate(-1.9 -11)"/><path class="cls-1" d="M36.5,17.76c-.21,0-.35.12-.35.48v5.62H33.86L31,19.31V22.2h1.15v1.66H27.69V22.2h1.12c.31,0,.38-.14.38-.47V18.1c0-.23-.07-.34-.35-.34H27.69V16.11h4.06l2.65,4.13V17.76H33.3V16.11h4.24v1.65Z" transform="translate(-1.9 -11)"/></svg>