<?xml version="1.0" encoding="utf-8"?>
<!-- Generator: Adobe Illustrator 24.2.3, SVG Export Plug-In . SVG Version: 6.00 Build 0)  -->
<svg version="1.1" id="Layer_1" xmlns="http://www.w3.org/2000/svg" xmlns:xlink="http://www.w3.org/1999/xlink" x="0px" y="0px"
	 viewBox="0 0 16 16" style="enable-background:new 0 0 16 16;" xml:space="preserve">
<style type="text/css">
	.st0{opacity:0.7;}
	.st1{fill:#BC9662;}
	.st2{fill:#99A8B0;}
	.st3{fill:#231F20;}
</style>
<g class="st0">
	<rect x="1" y="9" class="st1" width="15" height="7"/>
	<path class="st2" d="M8,1v5H3v2h10V1H8z"/>
	<path class="st2" d="M7,1v4H3L7,1z"/>
	<path class="st3" d="M3.1,12.1h0.8c0.5,0,0.8,0,0.9-0.1c0.1,0,0.2,0,0.3-0.1c0.1-0.1,0.1-0.3,0.1-0.4c0-0.2-0.1-0.3-0.2-0.4
		c-0.1-0.1-0.2-0.2-0.4-0.2H3.1V12.1z M2.1,15.1V10h2.1c0.5,0,0.9,0.1,1.2,0.2c0.3,0.1,0.5,0.3,0.6,0.5c0.2,0.3,0.2,0.5,0.2,0.8
		c0,0.4-0.1,0.7-0.3,1c-0.2,0.3-0.6,0.4-1,0.5c0.2,0.2,0.4,0.3,0.6,0.4c0.2,0.2,0.4,0.4,0.6,0.8l0.6,1H5.4L4.6,14
		c-0.3-0.4-0.5-0.7-0.5-0.8C4,13,3.9,13,3.8,12.9C3.7,13,3.6,13,3.3,13H3.1v2.1H2.1z"/>
	<g>
		<path class="st3" d="M6.4,12.6C6.4,11,7.3,10,8.6,10s2.2,0.9,2.2,2.6c0,1.6-0.9,2.6-2.2,2.6C7.3,15.2,6.4,14.2,6.4,12.6z
			 M9.8,12.6c0-1.1-0.5-1.7-1.2-1.7s-1.2,0.6-1.2,1.7s0.5,1.7,1.2,1.7S9.8,13.6,9.8,12.6z"/>
		<path class="st3" d="M11.2,10.1h1l1.4,2.6l0.5,1.1l0,0c0-0.5-0.1-1.2-0.1-1.8v-2h1v5h-1l-1.4-2.6l-0.5-1.1l0,0
			c0,0.5,0.1,1.2,0.1,1.7v2h-1V10.1z"/>
	</g>
</g>
</svg>
