<?xml version="1.0" encoding="utf-8"?>
<!-- Generator: Adobe Illustrator 24.2.3, SVG Export Plug-In . SVG Version: 6.00 Build 0)  -->
<svg version="1.1" id="Layer_1" xmlns="http://www.w3.org/2000/svg" xmlns:xlink="http://www.w3.org/1999/xlink" x="0px" y="0px"
	 viewBox="0 0 16 16" style="enable-background:new 0 0 16 16;" xml:space="preserve">
<style type="text/css">
	.st0{opacity:0.7;}
	.st1{fill:#BC9662;}
	.st2{fill:#99A8B0;}
	.st3{fill:#231F20;}
</style>
<g class="st0">
	<rect x="1" y="9" class="st1" width="15" height="7"/>
	<path class="st2" d="M8,1v5H3v2h10V1H8z"/>
	<path class="st2" d="M7,1v4H3L7,1z"/>
	<path class="st3" d="M3.6,12.1h0.8c0.5,0,0.8,0,0.9-0.1C5.4,12,5.5,12,5.6,11.9c0.1-0.1,0.1-0.3,0.1-0.4c0-0.2-0.1-0.3-0.2-0.4
		c-0.1-0.1-0.2-0.2-0.4-0.2H3.6L3.6,12.1z M2.6,15.1V10h2.1c0.5,0,0.9,0.1,1.2,0.2c0.3,0.1,0.5,0.3,0.6,0.5c0.2,0.3,0.2,0.5,0.2,0.8
		c0,0.4-0.1,0.7-0.3,1c-0.2,0.3-0.6,0.4-1,0.5c0.2,0.2,0.4,0.3,0.6,0.4c0.2,0.2,0.4,0.4,0.6,0.8l0.6,1H5.9L5.1,14
		c-0.3-0.4-0.5-0.7-0.5-0.8c-0.1-0.2-0.2-0.2-0.3-0.3C4.2,13,4.1,13,3.8,13H3.6v2.1L2.6,15.1z"/>
	<g>
		<path class="st3" d="M6.9,12.6C6.9,11,7.8,10,9.1,10c1.3,0,2.2,0.9,2.2,2.6c0,1.6-0.9,2.6-2.2,2.6C7.8,15.2,6.9,14.2,6.9,12.6z
			 M10.3,12.6c0-1.1-0.5-1.7-1.2-1.7c-0.7,0-1.2,0.6-1.2,1.7c0,1.1,0.5,1.7,1.2,1.7C9.8,14.3,10.3,13.6,10.3,12.6z"/>
		<path class="st3" d="M11.7,10.1h1l1.4,2.6l0.5,1.1h0c0-0.5-0.1-1.2-0.1-1.8v-2h1v5h-1l-1.4-2.6l-0.5-1.1h0c0,0.5,0.1,1.2,0.1,1.7
			v2h-1V10.1z"/>
	</g>
</g>
</svg>
